<svg xmlns="http://www.w3.org/2000/svg" viewBox="0 0 709.57568 698.22791"><path fill="#0f665c" d="m157.5 697.47-11.5-.7578-6.5-1.1606-6.5-1.1606-8-2.0891-8-2.0891-9.7802-3.8604-9.7802-3.8604-7.8216-3.9326-7.8216-3.9326-10.5191-7.034-10.5192-7.034-10.1964-9.6951-10.1963-9.695-8.7373-11.6067-8.7373-11.6067-6.177-12.1159-6.1771-12.116-2.9584-8.8617-2.9583-8.8616-2.31-10.5-2.31-10.5v-411L2.31 133.5 4.62 123l2.9656-9 2.9657-9 5.5283-11.2009 5.5283-11.2009 7.5794-10.6996 7.5794-10.6997 7.6049-7.9599 7.6049-7.96 7.5117-6.0585L67 33.162l8.6481-5.6922 8.648-5.6922 9.5196-4.6616 9.5195-4.6617 12.2775-4.0315 12.2776-4.0316 12.0548-2.1956L152 0h404l10 1.7873 10 1.7872 10.4956 3.0277 10.4956 3.0277 7.5044 2.9929L612 15.6157l8.5 4.5636 8.5 4.5636 9 6.2727 9 6.2727 5.9653 5.2433 5.9652 5.2434 7.8839 8.6125L674.6982 65l6.3287 9.5 6.3288 9.5 4.9682 10 4.9683 10 3.048 9 3.0481 9 2.0719 10.2359 2.0719 10.2359 1.0218 10.2641 1.0218 10.2642-.3512 194.5-.3513 194.5-2.1131 10.2768-2.1131 10.2768-3.2123 9.7232-3.2123 9.7232-4.2796 9.2215-4.2797 9.2216-5.563 8.5344-5.563 8.5344-4.0951 5.244-4.095 5.2441-7.6735 7.8637L655 653.7276l-7 5.7105-7 5.7105-6 4.0391-6 4.0391-8.5 4.5788-8.5 4.5788-7.9364 3.1659-7.9364 3.1658-9.5636 2.8541-9.5636 2.854-9.5 1.7596-9.5 1.7596-194.5.1423-194.5.1422zm399.1135-137.9724L562 558.4951l5.5-2.8554 5.5-2.8554.2931-1.485.293-1.4851-14.793-11.5041L544 526.806l-42.5-32.9428-42.5-32.9427-21.9228-16.849-21.9228-16.8491-1.5772-.4085-1.5772-.4085-22 14.1674-22 14.1674-4.5 2.0381-4.5 2.0382-5.5814-.052-5.5814-.052-3.9186-2.0087L340 454.695l-21.9648-14.139-21.9648-14.139-1.7858.2914-1.7858.2914-23.7494 18.6691L245 464.338l-41 32.1443-41 32.1443-12.4037 9.6866-12.4036 9.6866-1.3809 1.3559-1.3809 1.356 1.2217 1.472 1.2218 1.4721 4.8087 2.4368 4.8087 2.4368 3.7541.8848 3.7541.8847 198.1135.1005 198.1135.1004zM166.5 508.4376l37.5-29.3528 30.5-23.9801 30.5-23.9802 8.204-6.3502 8.2041-6.3502-.5033-1.212-.5032-1.212-24.7008-15.8215L231 384.3572l-18.5-11.9714-18.5-11.9714-25.5-16.6466-25.5-16.6467-9.75-6.3713-9.75-6.3712v-1.7879l3.75-.5922 3.75-.5922 3.119-.4739 3.1191-.4738 7.8809-4.8042 7.881-4.8042 28.5-18.5054 28.5-18.5054 35.5-22.8279 35.5-22.828 13.5-8.69 13.5-8.69 18.2008-11.6578 18.2009-11.6578 2.6142-.9939 2.6143-.9939h10.5396l8.3497 5.0714 8.3498 5.0714 12.0653 7.7753L401 201.1935l28 17.9606 28 17.9605 27 17.2804 27 17.2804 29.5 18.9061 29.5 18.9061 3 .9253 3 .9252 4.75.6423 4.75.6422v1.5513l-7.75 5.0486-7.75 5.0485-40.5 26.26-40.5 26.26-19.5 12.6586-19.5 12.6587-10.7575 6.8524-10.7575 6.8524-1.0548 1.271-1.0548 1.271 4.89 3.8225 4.89 3.8225 22.9223 17.7397L482 461.4796l22 17.0724 22 17.0723 8.5 6.6177 8.5 6.6176 19.1989 14.8202 19.1989 14.8203h2.885l1.8586-4.25 1.8586-4.25.2758-108.25.2757-108.25 2.7243-.01 2.7242-.01 10 1.1347 10 1.1347 4.5-1.2268 4.5-1.2268 4.1225-4.2868 4.1226-4.2868 1.1984-4.9952 1.1983-4.9953-1.0688-3.9691-1.0688-3.9692-2.2565-3.401-2.2565-3.4011-7.9956-5.3189-7.9956-5.319-22-14.0181-22-14.0181-10-6.4498-10-6.4497-14.3276-9.1122-14.3275-9.1121-1.4225-1.4225-1.4224-1.4224v-79.9565l-1.5663-3.0289-1.5664-3.029-4.1836-1.8994L504 117.5353l-26-.02-26-.02-3.4289 1.7485-3.429 1.7484-2.0339 2.7736-2.034 2.7737-.4066 15.9763-.4066 15.9764h-1.0399l-21.1105-13.6791L397 131.134l-6.5-4.1878-6.5-4.1878-10.4656-6.6526-10.4656-6.6526-3.9633-1.0672-3.9633-1.0672-4.2246.6335-4.2246.6335-11.3465 7.1659L324 122.9176l-52 34.6988-52 34.6987-19.5 13.1335L181 218.582l-29.5 18.6572-29.5 18.6571-17 11.122-17 11.122-3.2007 3.6546-3.2007 3.6546-.6711 3.5775-.6712 3.5776.4788 4.9832.4789 4.9832 2.9509 3.7106 2.951 3.7106 4.442 2.331L96 314.6541l10-.6603 10-.6602 2.5-.1707 2.5-.1707.1926 106 .1926 106 .586 4.0326.5861 4.0326 2.0111 3.3069 2.011 3.3069 1.2103-.9443 1.2103-.9442zm312.2116-141.1245 11.7116-7.8011 1.0384-1.9402 1.0384-1.9403v-45.1608l-3.4231-3.7353-3.423-3.7353-128.9642-.2612-128.9643-.2611-3.8261 1.2611-3.8262 1.2612-2.2866 3.3978-2.2865 3.3979v42.6101l1.1271 2.4737 1.127 2.4737 14.8894 9.674 14.8894 9.6741 1.4835-.5693 1.4836-.5693v-34.7141l2.5803-2.4243 2.5804-2.4243 97.1696-.2662L450 337.4678l2.7898 1.1539 2.7898 1.154 1.4602 2.0847 1.4602 2.0847v34.2216l.6534.6534.6534.6534 3.5966-2.1796L467 375.1142z"/></svg>